<?xml version="1.0" encoding="UTF-8"?>
<svg version="1.1" xmlns="http://www.w3.org/2000/svg" width="58" height="99">
<path d="M0 0 C19.14 0 38.28 0 58 0 C58 32.67 58 65.34 58 99 C38.86 99 19.72 99 0 99 C0 66.33 0 33.66 0 0 Z " fill="#EF8C60" transform="translate(0,0)"/>
<path d="M0 0 C19.14 0 38.28 0 58 0 C58 32.67 58 65.34 58 99 C38.86 99 19.72 99 0 99 C0 66.33 0 33.66 0 0 Z M2 2 C2 18.83 2 35.66 2 53 C2.66 53 3.32 53 4 53 C4 56.3 4 59.6 4 63 C14.89 63 25.78 63 37 63 C37 65.31 37 67.62 37 70 C25.45 70 13.9 70 2 70 C2 75.61 2 81.22 2 87 C2.66 87 3.32 87 4 87 C4 90.3 4 93.6 4 97 C21.16 97 38.32 97 56 97 C56 79.18 56 61.36 56 43 C54.35 43 52.7 43 51 43 C51 40.69 51 38.38 51 36 C41.1 36 31.2 36 21 36 C21 33.69 21 31.38 21 29 C32.55 29 44.1 29 56 29 C56 22.4 56 15.8 56 9 C54.35 9 52.7 9 51 9 C51 6.69 51 4.38 51 2 C34.83 2 18.66 2 2 2 Z " fill="#010409" transform="translate(0,0)"/>
<path d="M0 0 C0.66 0 1.32 0 2 0 C2 15.84 2 31.68 2 48 C-13.18 48 -28.36 48 -44 48 C-44 45.69 -44 43.38 -44 41 C-29.48 41 -14.96 41 0 41 C0 27.47 0 13.94 0 0 Z " fill="#010409" transform="translate(51,46)"/>
<path d="M0 0 C0.66 0 1.32 0 2 0 C2 4.62 2 9.24 2 14 C-9.55 14 -21.1 14 -33 14 C-33 17.3 -33 20.6 -33 24 C-33.66 24 -34.32 24 -35 24 C-35 18.39 -35 12.78 -35 7 C-23.45 7 -11.9 7 0 7 C0 4.69 0 2.38 0 0 Z " fill="#010409" transform="translate(51,12)"/>
<path d="M0 0 C9.9 0 19.8 0 30 0 C30 2.31 30 4.62 30 7 C20.1 7 10.2 7 0 7 C0 4.69 0 2.38 0 0 Z " fill="#010409" transform="translate(7,53)"/>
</svg>
